<svg xmlns="http://www.w3.org/2000/svg" version="1.1" xmlns:xlink="http://www.w3.org/1999/xlink" xmlns:svgjs="http://svgjs.com/svgjs" width="1440" height="560" preserveAspectRatio="none" viewBox="0 0 1440 560"><g mask="url(&quot;#SvgjsMask1000&quot;)" fill="none"><rect width="1440" height="560" x="0" y="0" fill="#0e2a47"></rect><path d="M-64.81 390.9L-64.81 390.9" stroke="#132e65" stroke-width="1.5"></path><path d="M-64.81 390.9L46.24 382.56" stroke="#132e65" stroke-width="1.5"></path><path d="M-64.81 390.9L-75.62 502.09" stroke="#132e65" stroke-width="1.5"></path><path d="M-64.81 390.9L39.75 488.17" stroke="#132e65" stroke-width="1.5"></path><path d="M-64.81 390.9L239.37 378.38" stroke="#132e65" stroke-width="1.5"></path><path d="M-64.81 390.9L67.77 668.02" stroke="#132e65" stroke-width="1.5"></path><path d="M-75.62 502.09L-75.62 502.09" stroke="#132e65" stroke-width="1.5"></path><path d="M-75.62 502.09L39.75 488.17" stroke="#132e65" stroke-width="1.5"></path><path d="M-75.62 502.09L46.24 382.56" stroke="#132e65" stroke-width="1.5"></path><path d="M-75.62 502.09L67.77 668.02" stroke="#132e65" stroke-width="1.5"></path><path d="M46.24 382.56L46.24 382.56" stroke="#132e65" stroke-width="1.5"></path><path d="M46.24 382.56L39.75 488.17" stroke="#132e65" stroke-width="1.5"></path><path d="M39.75 488.17L39.75 488.17" stroke="#132e65" stroke-width="1.5"></path><path d="M67.77 668.02L67.77 668.02" stroke="#132e65" stroke-width="1.5"></path><path d="M67.77 668.02L210.38 676.3" stroke="#132e65" stroke-width="1.5"></path><path d="M67.77 668.02L39.75 488.17" stroke="#132e65" stroke-width="1.5"></path><path d="M239.37 378.38L239.37 378.38" stroke="#132e65" stroke-width="1.5"></path><path d="M239.37 378.38L230.93 535.34" stroke="#132e65" stroke-width="1.5"></path><path d="M239.37 378.38L403.11 342.32" stroke="#132e65" stroke-width="1.5"></path><path d="M239.37 378.38L46.24 382.56" stroke="#132e65" stroke-width="1.5"></path><path d="M239.37 378.38L394.23 520.45" stroke="#132e65" stroke-width="1.5"></path><path d="M239.37 378.38L39.75 488.17" stroke="#132e65" stroke-width="1.5"></path><path d="M230.93 535.34L230.93 535.34" stroke="#132e65" stroke-width="1.5"></path><path d="M230.93 535.34L210.38 676.3" stroke="#132e65" stroke-width="1.5"></path><path d="M210.38 676.3L210.38 676.3" stroke="#132e65" stroke-width="1.5"></path><path d="M210.38 676.3L394.23 520.45" stroke="#132e65" stroke-width="1.5"></path><path d="M210.38 676.3L39.75 488.17" stroke="#132e65" stroke-width="1.5"></path><path d="M210.38 676.3L239.37 378.38" stroke="#132e65" stroke-width="1.5"></path><path d="M403.11 342.32L403.11 342.32" stroke="#132e65" stroke-width="1.5"></path><path d="M403.11 342.32L496.27 373.14" stroke="#132e65" stroke-width="1.5"></path><path d="M403.11 342.32L394.23 520.45" stroke="#132e65" stroke-width="1.5"></path><path d="M403.11 342.32L501.45 525.46" stroke="#132e65" stroke-width="1.5"></path><path d="M394.23 520.45L394.23 520.45" stroke="#132e65" stroke-width="1.5"></path><path d="M394.23 520.45L501.45 525.46" stroke="#132e65" stroke-width="1.5"></path><path d="M394.23 520.45L230.93 535.34" stroke="#132e65" stroke-width="1.5"></path><path d="M394.23 520.45L496.27 373.14" stroke="#132e65" stroke-width="1.5"></path><path d="M496.27 373.14L496.27 373.14" stroke="#132e65" stroke-width="1.5"></path><path d="M496.27 373.14L647.34 353.58" stroke="#132e65" stroke-width="1.5"></path><path d="M496.27 373.14L501.45 525.46" stroke="#132e65" stroke-width="1.5"></path><path d="M501.45 525.46L501.45 525.46" stroke="#132e65" stroke-width="1.5"></path><path d="M501.45 525.46L641.89 529.89" stroke="#132e65" stroke-width="1.5"></path><path d="M501.45 525.46L552.14 711.89" stroke="#132e65" stroke-width="1.5"></path><path d="M552.14 711.89L552.14 711.89" stroke="#132e65" stroke-width="1.5"></path><path d="M552.14 711.89L678 675.48" stroke="#132e65" stroke-width="1.5"></path><path d="M647.34 353.58L647.34 353.58" stroke="#132e65" stroke-width="1.5"></path><path d="M647.34 353.58L814.63 392.56" stroke="#132e65" stroke-width="1.5"></path><path d="M647.34 353.58L641.89 529.89" stroke="#132e65" stroke-width="1.5"></path><path d="M647.34 353.58L794.11 224.02" stroke="#132e65" stroke-width="1.5"></path><path d="M641.89 529.89L641.89 529.89" stroke="#132e65" stroke-width="1.5"></path><path d="M641.89 529.89L678 675.48" stroke="#132e65" stroke-width="1.5"></path><path d="M641.89 529.89L790.47 508.84" stroke="#132e65" stroke-width="1.5"></path><path d="M641.89 529.89L804.88 645.26" stroke="#132e65" stroke-width="1.5"></path><path d="M641.89 529.89L552.14 711.89" stroke="#132e65" stroke-width="1.5"></path><path d="M678 675.48L678 675.48" stroke="#132e65" stroke-width="1.5"></path><path d="M678 675.48L804.88 645.26" stroke="#132e65" stroke-width="1.5"></path><path d="M852.77 77.76L852.77 77.76" stroke="#132e65" stroke-width="1.5"></path><path d="M852.77 77.76L955.97 195.15" stroke="#132e65" stroke-width="1.5"></path><path d="M852.77 77.76L794.11 224.02" stroke="#132e65" stroke-width="1.5"></path><path d="M852.77 77.76L1005.35 -63.3" stroke="#132e65" stroke-width="1.5"></path><path d="M852.77 77.76L1144.14 49.85" stroke="#132e65" stroke-width="1.5"></path><path d="M852.77 77.76L1108.56 238.41" stroke="#132e65" stroke-width="1.5"></path><path d="M794.11 224.02L794.11 224.02" stroke="#132e65" stroke-width="1.5"></path><path d="M794.11 224.02L955.97 195.15" stroke="#132e65" stroke-width="1.5"></path><path d="M794.11 224.02L814.63 392.56" stroke="#132e65" stroke-width="1.5"></path><path d="M794.11 224.02L790.47 508.84" stroke="#132e65" stroke-width="1.5"></path><path d="M814.63 392.56L814.63 392.56" stroke="#132e65" stroke-width="1.5"></path><path d="M814.63 392.56L790.47 508.84" stroke="#132e65" stroke-width="1.5"></path><path d="M790.47 508.84L790.47 508.84" stroke="#132e65" stroke-width="1.5"></path><path d="M790.47 508.84L804.88 645.26" stroke="#132e65" stroke-width="1.5"></path><path d="M790.47 508.84L678 675.48" stroke="#132e65" stroke-width="1.5"></path><path d="M790.47 508.84L647.34 353.58" stroke="#132e65" stroke-width="1.5"></path><path d="M804.88 645.26L804.88 645.26" stroke="#132e65" stroke-width="1.5"></path><path d="M1005.35 -63.3L1005.35 -63.3" stroke="#132e65" stroke-width="1.5"></path><path d="M1005.35 -63.3L1122.65 -80.57" stroke="#132e65" stroke-width="1.5"></path><path d="M1005.35 -63.3L1144.14 49.85" stroke="#132e65" stroke-width="1.5"></path><path d="M955.97 195.15L955.97 195.15" stroke="#132e65" stroke-width="1.5"></path><path d="M955.97 195.15L1108.56 238.41" stroke="#132e65" stroke-width="1.5"></path><path d="M955.97 195.15L1115.64 345.33" stroke="#132e65" stroke-width="1.5"></path><path d="M1005.86 535.74L1005.86 535.74" stroke="#132e65" stroke-width="1.5"></path><path d="M1005.86 535.74L1100.92 528.3" stroke="#132e65" stroke-width="1.5"></path><path d="M1005.86 535.74L1000.06 656.45" stroke="#132e65" stroke-width="1.5"></path><path d="M1005.86 535.74L1137.01 676.49" stroke="#132e65" stroke-width="1.5"></path><path d="M1005.86 535.74L790.47 508.84" stroke="#132e65" stroke-width="1.5"></path><path d="M1000.06 656.45L1000.06 656.45" stroke="#132e65" stroke-width="1.5"></path><path d="M1000.06 656.45L1137.01 676.49" stroke="#132e65" stroke-width="1.5"></path><path d="M1122.65 -80.57L1122.65 -80.57" stroke="#132e65" stroke-width="1.5"></path><path d="M1122.65 -80.57L1144.14 49.85" stroke="#132e65" stroke-width="1.5"></path><path d="M1122.65 -80.57L1257.04 -103.42" stroke="#132e65" stroke-width="1.5"></path><path d="M1122.65 -80.57L1249.47 75.48" stroke="#132e65" stroke-width="1.5"></path><path d="M1122.65 -80.57L852.77 77.76" stroke="#132e65" stroke-width="1.5"></path><path d="M1144.14 49.85L1144.14 49.85" stroke="#132e65" stroke-width="1.5"></path><path d="M1144.14 49.85L1249.47 75.48" stroke="#132e65" stroke-width="1.5"></path><path d="M1144.14 49.85L1257.04 -103.42" stroke="#132e65" stroke-width="1.5"></path><path d="M1144.14 49.85L1108.56 238.41" stroke="#132e65" stroke-width="1.5"></path><path d="M1108.56 238.41L1108.56 238.41" stroke="#132e65" stroke-width="1.5"></path><path d="M1108.56 238.41L1115.64 345.33" stroke="#132e65" stroke-width="1.5"></path><path d="M1108.56 238.41L1255.81 242.82" stroke="#132e65" stroke-width="1.5"></path><path d="M1108.56 238.41L1249.47 75.48" stroke="#132e65" stroke-width="1.5"></path><path d="M1115.64 345.33L1115.64 345.33" stroke="#132e65" stroke-width="1.5"></path><path d="M1100.92 528.3L1100.92 528.3" stroke="#132e65" stroke-width="1.5"></path><path d="M1100.92 528.3L1137.01 676.49" stroke="#132e65" stroke-width="1.5"></path><path d="M1137.01 676.49L1137.01 676.49" stroke="#132e65" stroke-width="1.5"></path><path d="M1137.01 676.49L1247.57 646.83" stroke="#132e65" stroke-width="1.5"></path><path d="M1137.01 676.49L1266.62 531.12" stroke="#132e65" stroke-width="1.5"></path><path d="M1257.04 -103.42L1257.04 -103.42" stroke="#132e65" stroke-width="1.5"></path><path d="M1257.04 -103.42L1249.47 75.48" stroke="#132e65" stroke-width="1.5"></path><path d="M1257.04 -103.42L1442.88 -89.31" stroke="#132e65" stroke-width="1.5"></path><path d="M1257.04 -103.42L1404.65 84.78" stroke="#132e65" stroke-width="1.5"></path><path d="M1249.47 75.48L1249.47 75.48" stroke="#132e65" stroke-width="1.5"></path><path d="M1249.47 75.48L1404.65 84.78" stroke="#132e65" stroke-width="1.5"></path><path d="M1249.47 75.48L1255.81 242.82" stroke="#132e65" stroke-width="1.5"></path><path d="M1255.81 242.82L1255.81 242.82" stroke="#132e65" stroke-width="1.5"></path><path d="M1255.81 242.82L1310.19 350.93" stroke="#132e65" stroke-width="1.5"></path><path d="M1255.81 242.82L1429.09 238.56" stroke="#132e65" stroke-width="1.5"></path><path d="M1255.81 242.82L1115.64 345.33" stroke="#132e65" stroke-width="1.5"></path><path d="M1310.19 350.93L1310.19 350.93" stroke="#132e65" stroke-width="1.5"></path><path d="M1310.19 350.93L1420.69 358.19" stroke="#132e65" stroke-width="1.5"></path><path d="M1310.19 350.93L1429.09 238.56" stroke="#132e65" stroke-width="1.5"></path><path d="M1310.19 350.93L1266.62 531.12" stroke="#132e65" stroke-width="1.5"></path><path d="M1266.62 531.12L1266.62 531.12" stroke="#132e65" stroke-width="1.5"></path><path d="M1266.62 531.12L1247.57 646.83" stroke="#132e65" stroke-width="1.5"></path><path d="M1247.57 646.83L1247.57 646.83" stroke="#132e65" stroke-width="1.5"></path><path d="M1247.57 646.83L1416.05 660.61" stroke="#132e65" stroke-width="1.5"></path><path d="M1247.57 646.83L1100.92 528.3" stroke="#132e65" stroke-width="1.5"></path><path d="M1247.57 646.83L1000.06 656.45" stroke="#132e65" stroke-width="1.5"></path><path d="M1247.57 646.83L1448.3 491.69" stroke="#132e65" stroke-width="1.5"></path><path d="M1442.88 -89.31L1442.88 -89.31" stroke="#132e65" stroke-width="1.5"></path><path d="M1442.88 -89.31L1404.65 84.78" stroke="#132e65" stroke-width="1.5"></path><path d="M1442.88 -89.31L1571.84 102.61" stroke="#132e65" stroke-width="1.5"></path><path d="M1442.88 -89.31L1249.47 75.48" stroke="#132e65" stroke-width="1.5"></path><path d="M1442.88 -89.31L1122.65 -80.57" stroke="#132e65" stroke-width="1.5"></path><path d="M1404.65 84.78L1404.65 84.78" stroke="#132e65" stroke-width="1.5"></path><path d="M1404.65 84.78L1429.09 238.56" stroke="#132e65" stroke-width="1.5"></path><path d="M1404.65 84.78L1571.84 102.61" stroke="#132e65" stroke-width="1.5"></path><path d="M1404.65 84.78L1255.81 242.82" stroke="#132e65" stroke-width="1.5"></path><path d="M1429.09 238.56L1429.09 238.56" stroke="#132e65" stroke-width="1.5"></path><path d="M1429.09 238.56L1420.69 358.19" stroke="#132e65" stroke-width="1.5"></path><path d="M1429.09 238.56L1597.17 211.96" stroke="#132e65" stroke-width="1.5"></path><path d="M1420.69 358.19L1420.69 358.19" stroke="#132e65" stroke-width="1.5"></path><path d="M1448.3 491.69L1448.3 491.69" stroke="#132e65" stroke-width="1.5"></path><path d="M1448.3 491.69L1420.69 358.19" stroke="#132e65" stroke-width="1.5"></path><path d="M1448.3 491.69L1582.11 549.21" stroke="#132e65" stroke-width="1.5"></path><path d="M1448.3 491.69L1416.05 660.61" stroke="#132e65" stroke-width="1.5"></path><path d="M1448.3 491.69L1266.62 531.12" stroke="#132e65" stroke-width="1.5"></path><path d="M1416.05 660.61L1416.05 660.61" stroke="#132e65" stroke-width="1.5"></path><path d="M1416.05 660.61L1562.36 648.77" stroke="#132e65" stroke-width="1.5"></path><path d="M1416.05 660.61L1266.62 531.12" stroke="#132e65" stroke-width="1.5"></path><path d="M1416.05 660.61L1582.11 549.21" stroke="#132e65" stroke-width="1.5"></path><path d="M1416.05 660.61L1137.01 676.49" stroke="#132e65" stroke-width="1.5"></path><path d="M1571.84 102.61L1571.84 102.61" stroke="#132e65" stroke-width="1.5"></path><path d="M1571.84 102.61L1597.17 211.96" stroke="#132e65" stroke-width="1.5"></path><path d="M1571.84 102.61L1429.09 238.56" stroke="#132e65" stroke-width="1.5"></path><path d="M1571.84 102.61L1584.23 352.01" stroke="#132e65" stroke-width="1.5"></path><path d="M1571.84 102.61L1420.69 358.19" stroke="#132e65" stroke-width="1.5"></path><path d="M1597.17 211.96L1597.17 211.96" stroke="#132e65" stroke-width="1.5"></path><path d="M1597.17 211.96L1584.23 352.01" stroke="#132e65" stroke-width="1.5"></path><path d="M1584.23 352.01L1584.23 352.01" stroke="#132e65" stroke-width="1.5"></path><path d="M1584.23 352.01L1420.69 358.19" stroke="#132e65" stroke-width="1.5"></path><path d="M1582.11 549.21L1582.11 549.21" stroke="#132e65" stroke-width="1.5"></path><path d="M1582.11 549.21L1562.36 648.77" stroke="#132e65" stroke-width="1.5"></path><path d="M1562.36 648.77L1562.36 648.77" stroke="#132e65" stroke-width="1.5"></path><path d="M1562.36 648.77L1448.3 491.69" stroke="#132e65" stroke-width="1.5"></path><path d="M1562.36 648.77L1584.23 352.01" stroke="#132e65" stroke-width="1.5"></path><circle r="5" cx="-64.81" cy="390.9" fill="#132e65"></circle><circle r="5" cx="-75.62" cy="502.09" fill="#132e65"></circle><circle r="5" cx="46.24" cy="382.56" fill="#132e65"></circle><circle r="5" cx="39.75" cy="488.17" fill="#132e65"></circle><circle r="5" cx="67.77" cy="668.02" fill="#132e65"></circle><circle r="5" cx="239.37" cy="378.38" fill="#132e65"></circle><circle r="5" cx="230.93" cy="535.34" fill="#132e65"></circle><circle r="5" cx="210.38" cy="676.3" fill="#132e65"></circle><circle r="5" cx="403.11" cy="342.32" fill="#132e65"></circle><circle r="5" cx="394.23" cy="520.45" fill="#132e65"></circle><circle r="5" cx="496.27" cy="373.14" fill="#132e65"></circle><circle r="5" cx="501.45" cy="525.46" fill="#132e65"></circle><circle r="5" cx="552.14" cy="711.89" fill="#132e65"></circle><circle r="5" cx="647.34" cy="353.58" fill="#132e65"></circle><circle r="5" cx="641.89" cy="529.89" fill="#132e65"></circle><circle r="5" cx="678" cy="675.48" fill="#132e65"></circle><circle r="5" cx="852.77" cy="77.76" fill="#132e65"></circle><circle r="5" cx="794.11" cy="224.02" fill="#132e65"></circle><circle r="5" cx="814.63" cy="392.56" fill="#132e65"></circle><circle r="5" cx="790.47" cy="508.84" fill="#132e65"></circle><circle r="5" cx="804.88" cy="645.26" fill="#132e65"></circle><circle r="5" cx="1005.35" cy="-63.3" fill="#132e65"></circle><circle r="5" cx="955.97" cy="195.15" fill="#132e65"></circle><circle r="5" cx="1005.86" cy="535.74" fill="#132e65"></circle><circle r="5" cx="1000.06" cy="656.45" fill="#132e65"></circle><circle r="5" cx="1122.65" cy="-80.57" fill="#132e65"></circle><circle r="5" cx="1144.14" cy="49.85" fill="#132e65"></circle><circle r="5" cx="1108.56" cy="238.41" fill="#132e65"></circle><circle r="5" cx="1115.64" cy="345.33" fill="#132e65"></circle><circle r="5" cx="1100.92" cy="528.3" fill="#132e65"></circle><circle r="5" cx="1137.01" cy="676.49" fill="#132e65"></circle><circle r="5" cx="1257.04" cy="-103.42" fill="#132e65"></circle><circle r="5" cx="1249.47" cy="75.48" fill="#132e65"></circle><circle r="5" cx="1255.81" cy="242.82" fill="#132e65"></circle><circle r="5" cx="1310.19" cy="350.93" fill="#132e65"></circle><circle r="5" cx="1266.62" cy="531.12" fill="#132e65"></circle><circle r="5" cx="1247.57" cy="646.83" fill="#132e65"></circle><circle r="5" cx="1442.88" cy="-89.31" fill="#132e65"></circle><circle r="5" cx="1404.65" cy="84.78" fill="#132e65"></circle><circle r="5" cx="1429.09" cy="238.56" fill="#132e65"></circle><circle r="5" cx="1420.69" cy="358.19" fill="#132e65"></circle><circle r="5" cx="1448.3" cy="491.69" fill="#132e65"></circle><circle r="5" cx="1416.05" cy="660.61" fill="#132e65"></circle><circle r="5" cx="1571.84" cy="102.61" fill="#132e65"></circle><circle r="5" cx="1597.17" cy="211.96" fill="#132e65"></circle><circle r="5" cx="1584.23" cy="352.01" fill="#132e65"></circle><circle r="5" cx="1582.11" cy="549.21" fill="#132e65"></circle><circle r="5" cx="1562.36" cy="648.77" fill="#132e65"></circle><path d="M-78.72 659.77L-78.72 659.77" stroke="hsl(228.5, 77.2%, 51.5%)" stroke-width="1.5"></path><path d="M-78.72 659.77L63 654.66" stroke="hsl(228.5, 77.2%, 51.5%)" stroke-width="1.5"></path><path d="M-78.72 659.77L-53.52 494.63" stroke="hsl(228.5, 77.2%, 51.5%)" stroke-width="1.5"></path><path d="M246.2 527.34L246.2 527.34" stroke="hsl(228.5, 77.2%, 51.5%)" stroke-width="1.5"></path><path d="M246.2 527.34L340.81 539.32" stroke="hsl(228.5, 77.2%, 51.5%)" stroke-width="1.5"></path><path d="M246.2 527.34L262.19 652.71" stroke="hsl(228.5, 77.2%, 51.5%)" stroke-width="1.5"></path><path d="M819.53 699.24L819.53 699.24" stroke="hsl(228.5, 77.2%, 51.5%)" stroke-width="1.5"></path><path d="M819.53 699.24L675.55 681.62" stroke="hsl(228.5, 77.2%, 51.5%)" stroke-width="1.5"></path><path d="M819.53 699.24L984.23 682.01" stroke="hsl(228.5, 77.2%, 51.5%)" stroke-width="1.5"></path><path d="M819.53 699.24L852.18 523.78" stroke="hsl(228.5, 77.2%, 51.5%)" stroke-width="1.5"></path><path d="M1141.59 245.04L1141.59 245.04" stroke="hsl(228.5, 77.2%, 51.5%)" stroke-width="1.5"></path><path d="M1141.59 245.04L1244.66 234.27" stroke="hsl(228.5, 77.2%, 51.5%)" stroke-width="1.5"></path><path d="M1141.59 245.04L1158.93 365.1" stroke="hsl(228.5, 77.2%, 51.5%)" stroke-width="1.5"></path><path d="M1141.59 245.04L992.31 251.82" stroke="hsl(228.5, 77.2%, 51.5%)" stroke-width="1.5"></path><path d="M1141.59 245.04L1143.82 85.72" stroke="hsl(228.5, 77.2%, 51.5%)" stroke-width="1.5"></path><path d="M1090.8 707.43L1090.8 707.43" stroke="hsl(228.5, 77.2%, 51.5%)" stroke-width="1.5"></path><path d="M1090.8 707.43L984.23 682.01" stroke="hsl(228.5, 77.2%, 51.5%)" stroke-width="1.5"></path><path d="M1090.8 707.43L1134.04 549.95" stroke="hsl(228.5, 77.2%, 51.5%)" stroke-width="1.5"></path><path d="M1090.8 707.43L1260.6 648.78" stroke="hsl(228.5, 77.2%, 51.5%)" stroke-width="1.5"></path><path d="M1090.8 707.43L1249.15 541.65" stroke="hsl(228.5, 77.2%, 51.5%)" stroke-width="1.5"></path><path d="M1090.8 707.43L965.08 502.86" stroke="hsl(228.5, 77.2%, 51.5%)" stroke-width="1.5"></path><path d="M1260.6 648.78L1260.6 648.78" stroke="hsl(228.5, 77.2%, 51.5%)" stroke-width="1.5"></path><path d="M1260.6 648.78L1249.15 541.65" stroke="hsl(228.5, 77.2%, 51.5%)" stroke-width="1.5"></path><path d="M1260.6 648.78L1134.04 549.95" stroke="hsl(228.5, 77.2%, 51.5%)" stroke-width="1.5"></path><path d="M1558.79 540.54L1558.79 540.54" stroke="hsl(228.5, 77.2%, 51.5%)" stroke-width="1.5"></path><path d="M1558.79 540.54L1571.79 649.11" stroke="hsl(228.5, 77.2%, 51.5%)" stroke-width="1.5"></path><path d="M1558.79 540.54L1542.37 376.77" stroke="hsl(228.5, 77.2%, 51.5%)" stroke-width="1.5"></path><path d="M1558.79 540.54L1458.37 680.61" stroke="hsl(228.5, 77.2%, 51.5%)" stroke-width="1.5"></path><path d="M1571.79 649.11L1571.79 649.11" stroke="hsl(228.5, 77.2%, 51.5%)" stroke-width="1.5"></path><path d="M1571.79 649.11L1458.37 680.61" stroke="hsl(228.5, 77.2%, 51.5%)" stroke-width="1.5"></path><path d="M1571.79 649.11L1542.37 376.77" stroke="hsl(228.5, 77.2%, 51.5%)" stroke-width="1.5"></path><path d="M1571.79 649.11L1260.6 648.78" stroke="hsl(228.5, 77.2%, 51.5%)" stroke-width="1.5"></path><path d="M1571.79 649.11L1408.74 360.85" stroke="hsl(228.5, 77.2%, 51.5%)" stroke-width="1.5"></path><path d="M1571.79 649.11L1249.15 541.65" stroke="hsl(228.5, 77.2%, 51.5%)" stroke-width="1.5"></path><path d="M-53.52 494.63L-53.52 494.63" stroke="hsl(228.5, 77.2%, 51.5%)" stroke-width="1.5"></path><path d="M-53.52 494.63L82.99 558.72" stroke="hsl(228.5, 77.2%, 51.5%)" stroke-width="1.5"></path><path d="M-53.52 494.63L63 654.66" stroke="hsl(228.5, 77.2%, 51.5%)" stroke-width="1.5"></path><path d="M-53.52 494.63L246.2 527.34" stroke="hsl(228.5, 77.2%, 51.5%)" stroke-width="1.5"></path><path d="M-53.52 494.63L262.19 652.71" stroke="hsl(228.5, 77.2%, 51.5%)" stroke-width="1.5"></path><path d="M82.99 558.72L82.99 558.72" stroke="hsl(228.5, 77.2%, 51.5%)" stroke-width="1.5"></path><path d="M82.99 558.72L63 654.66" stroke="hsl(228.5, 77.2%, 51.5%)" stroke-width="1.5"></path><path d="M82.99 558.72L246.2 527.34" stroke="hsl(228.5, 77.2%, 51.5%)" stroke-width="1.5"></path><path d="M82.99 558.72L-78.72 659.77" stroke="hsl(228.5, 77.2%, 51.5%)" stroke-width="1.5"></path><path d="M82.99 558.72L262.19 652.71" stroke="hsl(228.5, 77.2%, 51.5%)" stroke-width="1.5"></path><path d="M82.99 558.72L340.81 539.32" stroke="hsl(228.5, 77.2%, 51.5%)" stroke-width="1.5"></path><path d="M63 654.66L63 654.66" stroke="hsl(228.5, 77.2%, 51.5%)" stroke-width="1.5"></path><path d="M262.19 652.71L262.19 652.71" stroke="hsl(228.5, 77.2%, 51.5%)" stroke-width="1.5"></path><path d="M262.19 652.71L346.49 691.82" stroke="hsl(228.5, 77.2%, 51.5%)" stroke-width="1.5"></path><path d="M262.19 652.71L340.81 539.32" stroke="hsl(228.5, 77.2%, 51.5%)" stroke-width="1.5"></path><path d="M262.19 652.71L63 654.66" stroke="hsl(228.5, 77.2%, 51.5%)" stroke-width="1.5"></path><path d="M340.81 539.32L340.81 539.32" stroke="hsl(228.5, 77.2%, 51.5%)" stroke-width="1.5"></path><path d="M340.81 539.32L346.49 691.82" stroke="hsl(228.5, 77.2%, 51.5%)" stroke-width="1.5"></path><path d="M340.81 539.32L496.93 561.56" stroke="hsl(228.5, 77.2%, 51.5%)" stroke-width="1.5"></path><path d="M346.49 691.82L346.49 691.82" stroke="hsl(228.5, 77.2%, 51.5%)" stroke-width="1.5"></path><path d="M346.49 691.82L533.48 669.35" stroke="hsl(228.5, 77.2%, 51.5%)" stroke-width="1.5"></path><path d="M346.49 691.82L246.2 527.34" stroke="hsl(228.5, 77.2%, 51.5%)" stroke-width="1.5"></path><path d="M346.49 691.82L496.93 561.56" stroke="hsl(228.5, 77.2%, 51.5%)" stroke-width="1.5"></path><path d="M346.49 691.82L63 654.66" stroke="hsl(228.5, 77.2%, 51.5%)" stroke-width="1.5"></path><path d="M496.93 561.56L496.93 561.56" stroke="hsl(228.5, 77.2%, 51.5%)" stroke-width="1.5"></path><path d="M496.93 561.56L533.48 669.35" stroke="hsl(228.5, 77.2%, 51.5%)" stroke-width="1.5"></path><path d="M496.93 561.56L700.09 512.26" stroke="hsl(228.5, 77.2%, 51.5%)" stroke-width="1.5"></path><path d="M496.93 561.56L675.55 681.62" stroke="hsl(228.5, 77.2%, 51.5%)" stroke-width="1.5"></path><path d="M496.93 561.56L679.44 402.26" stroke="hsl(228.5, 77.2%, 51.5%)" stroke-width="1.5"></path><path d="M533.48 669.35L533.48 669.35" stroke="hsl(228.5, 77.2%, 51.5%)" stroke-width="1.5"></path><path d="M533.48 669.35L675.55 681.62" stroke="hsl(228.5, 77.2%, 51.5%)" stroke-width="1.5"></path><path d="M679.44 402.26L679.44 402.26" stroke="hsl(228.5, 77.2%, 51.5%)" stroke-width="1.5"></path><path d="M679.44 402.26L700.09 512.26" stroke="hsl(228.5, 77.2%, 51.5%)" stroke-width="1.5"></path><path d="M679.44 402.26L827.7 390.34" stroke="hsl(228.5, 77.2%, 51.5%)" stroke-width="1.5"></path><path d="M679.44 402.26L852.18 523.78" stroke="hsl(228.5, 77.2%, 51.5%)" stroke-width="1.5"></path><path d="M700.09 512.26L700.09 512.26" stroke="hsl(228.5, 77.2%, 51.5%)" stroke-width="1.5"></path><path d="M700.09 512.26L852.18 523.78" stroke="hsl(228.5, 77.2%, 51.5%)" stroke-width="1.5"></path><path d="M675.55 681.62L675.55 681.62" stroke="hsl(228.5, 77.2%, 51.5%)" stroke-width="1.5"></path><path d="M827.7 390.34L827.7 390.34" stroke="hsl(228.5, 77.2%, 51.5%)" stroke-width="1.5"></path><path d="M827.7 390.34L852.18 523.78" stroke="hsl(228.5, 77.2%, 51.5%)" stroke-width="1.5"></path><path d="M852.18 523.78L852.18 523.78" stroke="hsl(228.5, 77.2%, 51.5%)" stroke-width="1.5"></path><path d="M852.18 523.78L965.08 502.86" stroke="hsl(228.5, 77.2%, 51.5%)" stroke-width="1.5"></path><path d="M992.31 251.82L992.31 251.82" stroke="hsl(228.5, 77.2%, 51.5%)" stroke-width="1.5"></path><path d="M992.31 251.82L1001.37 389.66" stroke="hsl(228.5, 77.2%, 51.5%)" stroke-width="1.5"></path><path d="M1001.37 389.66L1001.37 389.66" stroke="hsl(228.5, 77.2%, 51.5%)" stroke-width="1.5"></path><path d="M1001.37 389.66L965.08 502.86" stroke="hsl(228.5, 77.2%, 51.5%)" stroke-width="1.5"></path><path d="M1001.37 389.66L1158.93 365.1" stroke="hsl(228.5, 77.2%, 51.5%)" stroke-width="1.5"></path><path d="M1001.37 389.66L827.7 390.34" stroke="hsl(228.5, 77.2%, 51.5%)" stroke-width="1.5"></path><path d="M1001.37 389.66L852.18 523.78" stroke="hsl(228.5, 77.2%, 51.5%)" stroke-width="1.5"></path><path d="M1001.37 389.66L1141.59 245.04" stroke="hsl(228.5, 77.2%, 51.5%)" stroke-width="1.5"></path><path d="M965.08 502.86L965.08 502.86" stroke="hsl(228.5, 77.2%, 51.5%)" stroke-width="1.5"></path><path d="M984.23 682.01L984.23 682.01" stroke="hsl(228.5, 77.2%, 51.5%)" stroke-width="1.5"></path><path d="M984.23 682.01L965.08 502.86" stroke="hsl(228.5, 77.2%, 51.5%)" stroke-width="1.5"></path><path d="M1143.82 85.72L1143.82 85.72" stroke="hsl(228.5, 77.2%, 51.5%)" stroke-width="1.5"></path><path d="M1143.82 85.72L1244.66 234.27" stroke="hsl(228.5, 77.2%, 51.5%)" stroke-width="1.5"></path><path d="M1143.82 85.72L1239.1 -66.67" stroke="hsl(228.5, 77.2%, 51.5%)" stroke-width="1.5"></path><path d="M1158.93 365.1L1158.93 365.1" stroke="hsl(228.5, 77.2%, 51.5%)" stroke-width="1.5"></path><path d="M1158.93 365.1L1244.66 234.27" stroke="hsl(228.5, 77.2%, 51.5%)" stroke-width="1.5"></path><path d="M1134.04 549.95L1134.04 549.95" stroke="hsl(228.5, 77.2%, 51.5%)" stroke-width="1.5"></path><path d="M1134.04 549.95L1249.15 541.65" stroke="hsl(228.5, 77.2%, 51.5%)" stroke-width="1.5"></path><path d="M1134.04 549.95L965.08 502.86" stroke="hsl(228.5, 77.2%, 51.5%)" stroke-width="1.5"></path><path d="M1134.04 549.95L1158.93 365.1" stroke="hsl(228.5, 77.2%, 51.5%)" stroke-width="1.5"></path><path d="M1134.04 549.95L984.23 682.01" stroke="hsl(228.5, 77.2%, 51.5%)" stroke-width="1.5"></path><path d="M1239.1 -66.67L1239.1 -66.67" stroke="hsl(228.5, 77.2%, 51.5%)" stroke-width="1.5"></path><path d="M1239.1 -66.67L1408.28 -101.14" stroke="hsl(228.5, 77.2%, 51.5%)" stroke-width="1.5"></path><path d="M1244.66 234.27L1244.66 234.27" stroke="hsl(228.5, 77.2%, 51.5%)" stroke-width="1.5"></path><path d="M1244.66 234.27L1429.79 223.99" stroke="hsl(228.5, 77.2%, 51.5%)" stroke-width="1.5"></path><path d="M1244.66 234.27L1408.74 360.85" stroke="hsl(228.5, 77.2%, 51.5%)" stroke-width="1.5"></path><path d="M1249.15 541.65L1249.15 541.65" stroke="hsl(228.5, 77.2%, 51.5%)" stroke-width="1.5"></path><path d="M1249.15 541.65L1158.93 365.1" stroke="hsl(228.5, 77.2%, 51.5%)" stroke-width="1.5"></path><path d="M1408.28 -101.14L1408.28 -101.14" stroke="hsl(228.5, 77.2%, 51.5%)" stroke-width="1.5"></path><path d="M1408.28 -101.14L1589.58 -61.94" stroke="hsl(228.5, 77.2%, 51.5%)" stroke-width="1.5"></path><path d="M1408.28 -101.14L1456.65 93.55" stroke="hsl(228.5, 77.2%, 51.5%)" stroke-width="1.5"></path><path d="M1408.28 -101.14L1597.73 59.69" stroke="hsl(228.5, 77.2%, 51.5%)" stroke-width="1.5"></path><path d="M1408.28 -101.14L1143.82 85.72" stroke="hsl(228.5, 77.2%, 51.5%)" stroke-width="1.5"></path><path d="M1408.28 -101.14L1429.79 223.99" stroke="hsl(228.5, 77.2%, 51.5%)" stroke-width="1.5"></path><path d="M1456.65 93.55L1456.65 93.55" stroke="hsl(228.5, 77.2%, 51.5%)" stroke-width="1.5"></path><path d="M1456.65 93.55L1429.79 223.99" stroke="hsl(228.5, 77.2%, 51.5%)" stroke-width="1.5"></path><path d="M1456.65 93.55L1597.73 59.69" stroke="hsl(228.5, 77.2%, 51.5%)" stroke-width="1.5"></path><path d="M1456.65 93.55L1589.58 -61.94" stroke="hsl(228.5, 77.2%, 51.5%)" stroke-width="1.5"></path><path d="M1456.65 93.55L1588.04 255.44" stroke="hsl(228.5, 77.2%, 51.5%)" stroke-width="1.5"></path><path d="M1456.65 93.55L1244.66 234.27" stroke="hsl(228.5, 77.2%, 51.5%)" stroke-width="1.5"></path><path d="M1429.79 223.99L1429.79 223.99" stroke="hsl(228.5, 77.2%, 51.5%)" stroke-width="1.5"></path><path d="M1429.79 223.99L1408.74 360.85" stroke="hsl(228.5, 77.2%, 51.5%)" stroke-width="1.5"></path><path d="M1429.79 223.99L1588.04 255.44" stroke="hsl(228.5, 77.2%, 51.5%)" stroke-width="1.5"></path><path d="M1408.74 360.85L1408.74 360.85" stroke="hsl(228.5, 77.2%, 51.5%)" stroke-width="1.5"></path><path d="M1408.74 360.85L1542.37 376.77" stroke="hsl(228.5, 77.2%, 51.5%)" stroke-width="1.5"></path><path d="M1408.74 360.85L1588.04 255.44" stroke="hsl(228.5, 77.2%, 51.5%)" stroke-width="1.5"></path><path d="M1408.74 360.85L1558.79 540.54" stroke="hsl(228.5, 77.2%, 51.5%)" stroke-width="1.5"></path><path d="M1408.74 360.85L1249.15 541.65" stroke="hsl(228.5, 77.2%, 51.5%)" stroke-width="1.5"></path><path d="M1458.37 680.61L1458.37 680.61" stroke="hsl(228.5, 77.2%, 51.5%)" stroke-width="1.5"></path><path d="M1458.37 680.61L1260.6 648.78" stroke="hsl(228.5, 77.2%, 51.5%)" stroke-width="1.5"></path><path d="M1458.37 680.61L1249.15 541.65" stroke="hsl(228.5, 77.2%, 51.5%)" stroke-width="1.5"></path><path d="M1458.37 680.61L1542.37 376.77" stroke="hsl(228.5, 77.2%, 51.5%)" stroke-width="1.5"></path><path d="M1458.37 680.61L1408.74 360.85" stroke="hsl(228.5, 77.2%, 51.5%)" stroke-width="1.5"></path><path d="M1589.58 -61.94L1589.58 -61.94" stroke="hsl(228.5, 77.2%, 51.5%)" stroke-width="1.5"></path><path d="M1589.58 -61.94L1597.73 59.69" stroke="hsl(228.5, 77.2%, 51.5%)" stroke-width="1.5"></path><path d="M1589.58 -61.94L1588.04 255.44" stroke="hsl(228.5, 77.2%, 51.5%)" stroke-width="1.5"></path><path d="M1589.58 -61.94L1429.79 223.99" stroke="hsl(228.5, 77.2%, 51.5%)" stroke-width="1.5"></path><path d="M1597.73 59.69L1597.73 59.69" stroke="hsl(228.5, 77.2%, 51.5%)" stroke-width="1.5"></path><path d="M1597.73 59.69L1588.04 255.44" stroke="hsl(228.5, 77.2%, 51.5%)" stroke-width="1.5"></path><path d="M1588.04 255.44L1588.04 255.44" stroke="hsl(228.5, 77.2%, 51.5%)" stroke-width="1.5"></path><path d="M1588.04 255.44L1542.37 376.77" stroke="hsl(228.5, 77.2%, 51.5%)" stroke-width="1.5"></path><path d="M1542.37 376.77L1542.37 376.77" stroke="hsl(228.5, 77.2%, 51.5%)" stroke-width="1.5"></path><path d="M1542.37 376.77L1429.79 223.99" stroke="hsl(228.5, 77.2%, 51.5%)" stroke-width="1.5"></path><path d="M1542.37 376.77L1456.65 93.55" stroke="hsl(228.5, 77.2%, 51.5%)" stroke-width="1.5"></path><circle r="25" cx="-78.72" cy="659.77" fill="url(#SvgjsRadialGradient1001)"></circle><circle r="25" cx="246.2" cy="527.34" fill="url(#SvgjsRadialGradient1001)"></circle><circle r="25" cx="819.53" cy="699.24" fill="url(#SvgjsRadialGradient1001)"></circle><circle r="25" cx="1141.59" cy="245.04" fill="url(#SvgjsRadialGradient1001)"></circle><circle r="25" cx="1090.8" cy="707.43" fill="url(#SvgjsRadialGradient1001)"></circle><circle r="25" cx="1260.6" cy="648.78" fill="url(#SvgjsRadialGradient1001)"></circle><circle r="25" cx="1558.79" cy="540.54" fill="url(#SvgjsRadialGradient1001)"></circle><circle r="25" cx="1571.79" cy="649.11" fill="url(#SvgjsRadialGradient1001)"></circle><circle r="5" cx="-53.52" cy="494.63" fill="#8b9ad9"></circle><circle r="5" cx="82.99" cy="558.72" fill="#8b9ad9"></circle><circle r="5" cx="63" cy="654.66" fill="#8b9ad9"></circle><circle r="5" cx="262.19" cy="652.71" fill="#8b9ad9"></circle><circle r="5" cx="340.81" cy="539.32" fill="#8b9ad9"></circle><circle r="5" cx="346.49" cy="691.82" fill="#8b9ad9"></circle><circle r="5" cx="496.93" cy="561.56" fill="#8b9ad9"></circle><circle r="5" cx="533.48" cy="669.35" fill="#8b9ad9"></circle><circle r="5" cx="679.44" cy="402.26" fill="#8b9ad9"></circle><circle r="5" cx="700.09" cy="512.26" fill="#8b9ad9"></circle><circle r="5" cx="675.55" cy="681.62" fill="#8b9ad9"></circle><circle r="5" cx="827.7" cy="390.34" fill="#8b9ad9"></circle><circle r="5" cx="852.18" cy="523.78" fill="#8b9ad9"></circle><circle r="5" cx="992.31" cy="251.82" fill="#8b9ad9"></circle><circle r="5" cx="1001.37" cy="389.66" fill="#8b9ad9"></circle><circle r="5" cx="965.08" cy="502.86" fill="#8b9ad9"></circle><circle r="5" cx="984.23" cy="682.01" fill="#8b9ad9"></circle><circle r="5" cx="1143.82" cy="85.72" fill="#8b9ad9"></circle><circle r="5" cx="1158.93" cy="365.1" fill="#8b9ad9"></circle><circle r="5" cx="1134.04" cy="549.95" fill="#8b9ad9"></circle><circle r="5" cx="1239.1" cy="-66.67" fill="#8b9ad9"></circle><circle r="5" cx="1244.66" cy="234.27" fill="#8b9ad9"></circle><circle r="5" cx="1249.15" cy="541.65" fill="#8b9ad9"></circle><circle r="5" cx="1408.28" cy="-101.14" fill="#8b9ad9"></circle><circle r="5" cx="1456.65" cy="93.55" fill="#8b9ad9"></circle><circle r="5" cx="1429.79" cy="223.99" fill="#8b9ad9"></circle><circle r="5" cx="1408.74" cy="360.85" fill="#8b9ad9"></circle><circle r="5" cx="1458.37" cy="680.61" fill="#8b9ad9"></circle><circle r="5" cx="1589.58" cy="-61.94" fill="#8b9ad9"></circle><circle r="5" cx="1597.73" cy="59.69" fill="#8b9ad9"></circle><circle r="5" cx="1588.04" cy="255.44" fill="#8b9ad9"></circle><circle r="5" cx="1542.37" cy="376.77" fill="#8b9ad9"></circle></g><defs><mask id="SvgjsMask1000"><rect width="1440" height="560" fill="#ffffff"></rect></mask><radialGradient id="SvgjsRadialGradient1001"><stop stop-color="#ffffff" offset="0.1"></stop><stop stop-color="#1735b3" offset="0.2"></stop><stop stop-color="rgba(23, 53, 179, 0)" offset="1"></stop></radialGradient></defs></svg>