<?xml version="1.0" standalone="no"?>
<!DOCTYPE svg PUBLIC "-//W3C//DTD SVG 20010904//EN"
 "http://www.w3.org/TR/2001/REC-SVG-20010904/DTD/svg10.dtd">
<svg version="1.0" xmlns="http://www.w3.org/2000/svg"
 width="300.000000pt" height="366.000000pt" viewBox="0 0 300.000000 366.000000"
 preserveAspectRatio="xMidYMid meet">
<metadata>
Created by potrace 1.10, written by Peter Selinger 2001-2011
</metadata>
<g transform="translate(0.000000,366.000000) scale(0.100000,-0.100000)"
fill="#000000" stroke="none">
<path d="M77 3593 c-4 -3 -7 -793 -7 -1755 l0 -1748 1420 0 1420 0 0 1755 0
1755 -1413 0 c-778 0 -1417 -3 -1420 -7z m2821 -1750 l-3 -1738 -1402 -2
-1403 -1 0 1739 0 1739 1405 0 1405 0 -2 -1737z"/>
<path d="M1245 3389 c4 -6 13 -8 21 -5 18 7 91 -19 77 -27 -6 -4 -22 -3 -36 2
-14 5 -27 7 -30 5 -3 -3 -14 -1 -26 5 -17 10 -19 8 -16 -10 3 -15 0 -19 -13
-16 -9 2 -32 -8 -51 -22 -19 -13 -31 -20 -28 -13 5 7 -2 9 -20 7 -16 -2 -28
-4 -28 -5 0 0 -20 -3 -44 -5 -35 -3 -52 -12 -87 -46 -27 -26 -42 -50 -41 -63
1 -13 -7 -25 -23 -33 -30 -15 -103 -78 -75 -64 11 5 29 19 39 30 11 12 29 21
40 21 19 -1 18 -3 -6 -16 -16 -8 -28 -17 -28 -19 0 -3 12 0 28 6 21 8 24 8 15
-2 -6 -6 -23 -11 -37 -11 -14 0 -33 -9 -42 -19 -9 -10 -20 -16 -25 -14 -9 6
-22 -31 -15 -43 3 -5 -8 -21 -23 -36 -16 -15 -32 -42 -35 -59 -3 -17 -14 -40
-24 -51 -9 -10 -12 -16 -5 -13 21 13 22 -7 3 -63 -17 -51 -17 -62 -4 -150 8
-51 19 -99 24 -104 7 -7 10 -6 10 2 0 7 3 12 8 12 4 0 8 -27 8 -60 0 -67 6
-79 30 -59 14 11 13 6 -4 -27 l-21 -41 23 -22 c12 -11 30 -21 39 -21 14 0 16
11 16 78 -1 42 0 82 1 87 6 25 -1 46 -12 39 -10 -5 -10 -4 -1 6 7 8 8 21 4 34
-18 47 6 118 48 144 47 29 77 75 112 174 10 29 23 42 63 62 28 14 62 26 75 26
24 0 24 0 5 23 -19 22 -19 22 1 5 23 -19 141 -32 151 -17 3 5 14 9 25 9 10 0
19 5 19 11 0 6 6 17 14 24 12 12 16 11 30 -4 18 -20 56 -18 56 3 0 6 5 3 11
-6 10 -18 30 -25 28 -10 -1 4 -1 14 0 22 1 11 3 12 9 3 4 -6 20 -14 35 -17 22
-4 27 -1 27 15 0 10 5 19 10 19 6 0 10 -7 10 -15 0 -16 25 -21 34 -6 7 10 56
2 56 -10 0 -4 17 -11 38 -14 20 -4 49 -15 64 -26 33 -23 35 -23 41 -1 3 9 5 3
6 -15 2 -49 19 -49 23 -1 l3 43 37 -48 c20 -26 40 -48 43 -47 4 1 25 -25 47
-56 27 -39 42 -74 48 -110 5 -29 17 -67 26 -86 10 -18 18 -40 19 -50 0 -9 3
-19 7 -23 4 -4 4 -14 1 -23 -4 -9 -2 -13 4 -9 7 5 9 0 6 -13 -3 -11 -1 -20 3
-20 5 0 9 -14 9 -32 0 -18 6 -33 14 -36 11 -3 12 1 8 19 -4 13 -10 41 -13 62
-6 35 -5 38 25 48 17 6 31 17 31 24 0 7 5 15 11 17 12 4 16 124 7 229 -5 57
-33 156 -49 173 -5 6 -9 20 -9 33 0 13 -10 33 -22 45 -25 25 -53 72 -38 63 18
-11 10 7 -22 49 -42 54 -40 53 -45 40 -3 -8 -16 -8 -48 -1 -25 6 -48 8 -51 5
-9 -10 16 -49 27 -42 6 3 5 -3 -2 -14 -13 -20 -13 -20 -26 5 -7 14 -13 32 -13
39 0 19 -19 18 -26 -1 -4 -8 -10 -15 -16 -15 -5 0 -6 5 -2 11 5 8 1 8 -14 0
-29 -16 -36 -14 -22 7 7 9 -2 1 -20 -18 -29 -32 -31 -33 -25 -10 4 14 12 27
16 28 5 2 9 9 9 16 0 6 10 12 21 13 12 1 27 7 33 13 13 14 -43 3 -58 -11 -6
-5 -21 -9 -35 -9 l-24 0 23 20 c13 11 18 20 12 20 -7 0 -20 -8 -30 -18 -24
-24 -50 -34 -57 -22 -4 6 -17 10 -31 10 -13 0 -24 6 -24 13 0 7 -3 8 -8 2 -8
-11 -53 -15 -47 -4 8 12 -18 25 -85 43 -36 9 -88 24 -116 32 -61 17 -98 18
-89 3z m135 -44 c11 -13 10 -14 -4 -9 -9 3 -16 10 -16 15 0 13 6 11 20 -6z
m118 -19 c26 -13 26 -14 4 -20 -13 -4 -19 -12 -16 -18 4 -7 2 -8 -5 -4 -6 4
-9 11 -6 16 3 5 1 11 -5 15 -5 3 -10 1 -10 -4 0 -6 -8 -3 -18 7 -10 9 -27 22
-38 29 -27 16 60 -3 94 -21z m-198 14 c-8 -5 -19 -10 -25 -10 -5 0 -3 5 5 10
8 5 20 10 25 10 6 0 3 -5 -5 -10z m-217 -52 c3 -10 10 -10 28 1 21 13 23 13
11 -1 -7 -9 -31 -19 -54 -22 -23 -4 -48 -12 -55 -18 -9 -7 -13 -7 -13 0 0 6 5
14 10 17 6 4 8 11 5 16 -3 5 1 6 9 3 9 -3 16 -1 16 5 0 15 37 14 43 -1z m514
-15 c-4 -3 -7 0 -7 7 0 7 3 10 7 7 3 -4 3 -10 0 -14z m-280 -25 c-3 -7 -5 -2
-5 12 0 14 2 19 5 13 2 -7 2 -19 0 -25z m393 28 c0 -3 -5 -8 -12 -12 -7 -4 -8
-3 -4 4 7 12 16 16 16 8z m197 -23 c-4 -3 -7 0 -7 7 0 7 3 10 7 7 3 -4 3 -10
0 -14z m58 -13 c8 -13 -5 -13 -25 0 -13 8 -13 10 2 10 9 0 20 -4 23 -10z
m-988 -7 c-4 -3 -10 -3 -14 0 -3 4 0 7 7 7 7 0 10 -3 7 -7z m873 3 c0 -2 -7
-7 -16 -10 -8 -3 -12 -2 -9 4 6 10 25 14 25 6z m-907 -21 c-3 -9 -8 -14 -10
-11 -3 3 -2 9 2 15 9 16 15 13 8 -4z m414 -12 c-4 -3 -7 0 -7 7 0 7 3 10 7 7
3 -4 3 -10 0 -14z m650 10 c-4 -3 -10 -3 -14 0 -3 4 0 7 7 7 7 0 10 -3 7 -7z
m-997 -26 c0 -2 -12 -14 -27 -28 -24 -22 -24 -13 0 19 8 11 27 17 27 9z m890
-1 c0 -3 -5 -8 -12 -12 -7 -4 -8 -3 -4 4 7 12 16 16 16 8z m-463 -38 c-3 -8
-6 -5 -6 6 -1 11 2 17 5 13 3 -3 4 -12 1 -19z m52 -14 c3 2 11 -7 18 -20 9
-20 8 -26 -5 -33 -13 -7 -17 -4 -18 12 0 12 -3 29 -6 37 -2 8 -3 12 -1 7 3 -4
8 -5 12 -3z m346 -24 c3 -5 4 -10 1 -10 -3 0 -8 5 -11 10 -3 6 -4 10 -1 10 3
0 8 -4 11 -10z m-955 -30 c-8 -5 -19 -10 -25 -10 -5 0 -3 5 5 10 8 5 20 10 25
10 6 0 3 -5 -5 -10z m-100 -155 c-7 -8 -17 -15 -22 -15 -6 0 -5 7 2 15 7 8 17
15 22 15 6 0 5 -7 -2 -15z m1295 -235 c3 -5 4 -10 1 -10 -3 0 -8 5 -11 10 -3
6 -4 10 -1 10 3 0 8 -4 11 -10z m-5 -60 c0 -5 -2 -10 -4 -10 -3 0 -8 5 -11 10
-3 6 -1 10 4 10 6 0 11 -4 11 -10z"/>
<path d="M1173 3373 c4 -3 10 -3 14 0 3 4 0 7 -7 7 -7 0 -10 -3 -7 -7z"/>
<path d="M1756 3372 c-2 -4 4 -9 15 -9 10 -1 19 2 19 8 0 11 -27 12 -34 1z"/>
<path d="M1800 3374 c0 -7 52 -25 57 -20 2 2 -10 8 -26 14 -17 6 -31 9 -31 6z"/>
<path d="M1706 3351 c-4 -5 3 -7 14 -4 23 6 26 13 6 13 -8 0 -17 -4 -20 -9z"/>
<path d="M1110 3339 c0 -5 5 -7 10 -4 6 3 10 8 10 11 0 2 -4 4 -10 4 -5 0 -10
-5 -10 -11z"/>
<path d="M1753 3323 c4 -3 10 -3 14 0 3 4 0 7 -7 7 -7 0 -10 -3 -7 -7z"/>
<path d="M1875 3320 c-3 -5 1 -10 10 -10 9 0 13 5 10 10 -3 6 -8 10 -10 10 -2
0 -7 -4 -10 -10z"/>
<path d="M2075 2435 c1 -17 -5 -32 -21 -44 -13 -10 -21 -21 -18 -24 12 -11
-174 10 -348 39 -24 4 -38 3 -38 -4 0 -27 -240 -93 -264 -73 -15 12 -97 41
-118 41 -9 0 -29 8 -46 17 -19 11 -35 14 -48 8 -26 -11 -45 -16 -71 -17 -13 0
-20 -4 -17 -9 5 -8 -72 -14 -173 -13 -23 0 -39 -4 -36 -9 3 -4 -3 -7 -13 -5
-16 2 -19 -3 -18 -33 1 -30 -2 -36 -16 -32 -14 4 -19 -3 -22 -31 -2 -20 0 -43
5 -51 5 -10 4 -22 -5 -32 -8 -11 -8 -14 -1 -10 8 5 14 -7 18 -38 4 -25 12 -45
17 -45 6 0 7 8 4 17 -13 32 -18 141 -8 159 9 16 12 14 26 -16 8 -19 22 -61 32
-92 27 -94 52 -105 252 -110 85 -2 122 -6 122 -14 0 -31 70 58 110 139 39 79
48 92 70 92 21 0 31 -11 59 -69 36 -71 123 -177 136 -164 5 4 2 15 -6 24 -12
15 -11 16 21 8 94 -24 269 1 312 44 23 23 69 165 75 232 5 46 13 56 64 75 18
7 44 55 29 55 -5 0 -16 -10 -24 -22 l-15 -21 -10 26 c-13 34 -20 35 -16 2z
m-378 -42 c-4 -3 -10 -3 -14 0 -3 4 0 7 7 7 7 0 10 -3 7 -7z m265 -54 c24 -13
41 -84 33 -138 -12 -78 -29 -107 -72 -122 -50 -18 -279 -19 -310 -1 -32 18
-64 85 -70 148 l-6 54 32 -11 c17 -6 31 -15 31 -21 0 -5 7 -2 16 6 16 16 36
19 112 16 30 -1 44 3 48 14 3 9 10 16 16 16 5 0 6 -4 3 -10 -4 -6 6 -10 23
-10 16 0 35 -7 42 -15 16 -19 44 -19 60 0 7 9 23 13 36 11 19 -4 24 0 24 15 0
16 -5 19 -20 14 -21 -7 -119 33 -120 48 0 10 98 -1 122 -14z m-881 -6 c-38 -3
-69 -10 -78 -19 -8 -7 -21 -14 -28 -14 -8 0 -19 -8 -24 -17 -10 -17 -10 -17
-11 0 0 9 -5 17 -11 17 -5 0 -7 4 -4 10 11 17 68 28 145 27 l75 -1 -64 -3z
m16 -20 c-4 -3 -10 -3 -14 0 -3 4 0 7 7 7 7 0 10 -3 7 -7z m97 -59 c55 6 57 6
46 -14 -6 -11 -16 -20 -22 -20 -6 0 -9 -2 -6 -5 7 -7 68 15 68 25 0 5 -6 11
-12 14 -7 3 -1 4 15 1 15 -3 27 -1 27 5 0 5 7 10 15 10 8 0 15 5 15 11 0 5 5
7 10 4 29 -18 -4 -166 -45 -205 -23 -22 -35 -24 -157 -28 -196 -7 -226 11
-244 145 -5 45 -4 52 12 55 11 3 36 -4 57 -14 34 -17 40 -17 67 -3 16 8 39 15
51 15 17 0 19 3 10 13 -6 8 -8 17 -4 21 4 4 14 -3 23 -14 15 -19 23 -21 74
-16z m46 27 c0 -5 -7 -12 -16 -15 -14 -5 -15 -4 -4 9 14 17 20 19 20 6z"/>
<path d="M1047 2384 c6 -15 23 -19 23 -5 0 5 -7 11 -14 14 -10 4 -13 1 -9 -9z"/>
<path d="M985 2380 c-16 -7 -12 -9 18 -9 23 -1 36 3 32 9 -7 12 -23 12 -50 0z"/>
<path d="M923 2363 c4 -3 10 -3 14 0 3 4 0 7 -7 7 -7 0 -10 -3 -7 -7z"/>
<path d="M2084 2348 c-4 -7 -3 -8 4 -4 7 4 12 9 12 12 0 8 -9 4 -16 -8z"/>
<path d="M760 2342 c0 -5 7 -15 15 -22 8 -7 15 -8 15 -2 0 5 -7 15 -15 22 -8
7 -15 8 -15 2z"/>
<path d="M716 2290 c8 -43 14 -51 14 -19 0 13 -5 31 -10 39 -7 11 -8 5 -4 -20z"/>
<path d="M810 2310 c0 -7 3 -10 7 -7 3 4 3 10 0 14 -4 3 -7 0 -7 -7z"/>
<path d="M2076 2297 c3 -10 9 -15 12 -12 3 3 0 11 -7 18 -10 9 -11 8 -5 -6z"/>
<path d="M780 2240 c0 -7 3 -10 7 -7 3 4 3 10 0 14 -4 3 -7 0 -7 -7z"/>
<path d="M760 2210 c0 -7 3 -10 7 -7 3 4 3 10 0 14 -4 3 -7 0 -7 -7z"/>
<path d="M781 2154 c0 -11 3 -14 6 -6 3 7 2 16 -1 19 -3 4 -6 -2 -5 -13z"/>
<path d="M789 2123 c-8 -9 -9 -14 -2 -10 6 4 13 1 16 -5 3 -7 4 -3 4 10 -1 26
-1 26 -18 5z"/>
<path d="M1535 1946 l-30 -14 28 -11 c16 -6 35 -11 43 -11 20 0 30 30 13 41
-18 11 -18 11 -54 -5z"/>
<path d="M1224 1938 c-4 -7 -3 -8 4 -4 12 7 16 16 8 16 -3 0 -8 -5 -12 -12z"/>
<path d="M1316 1942 c-3 -5 1 -18 9 -28 14 -18 16 -18 28 -2 8 10 18 14 22 10
4 -4 6 0 3 8 -5 17 -53 26 -62 12z"/>
<path d="M1204 1908 c-4 -7 -3 -8 4 -4 12 7 16 16 8 16 -3 0 -8 -5 -12 -12z"/>
<path d="M1450 1901 c-34 -7 -35 -7 -8 -12 18 -4 32 -1 39 7 6 8 10 13 8 13
-2 -1 -20 -5 -39 -8z"/>
<path d="M840 1875 c0 -10 -5 -13 -12 -9 -7 4 -8 3 -4 -4 10 -17 36 -15 36 2
0 8 -4 18 -10 21 -5 3 -10 -1 -10 -10z"/>
<path d="M880 1780 c0 -7 3 -10 7 -7 3 4 3 10 0 14 -4 3 -7 0 -7 -7z"/>
<path d="M1235 1768 c-15 -47 -15 -58 -1 -58 8 0 16 5 18 11 3 8 41 11 118 11
63 -1 142 3 175 8 104 18 128 20 141 9 8 -6 14 -5 18 7 12 30 6 34 -50 34 -31
0 -53 -4 -49 -9 8 -15 -22 -19 -123 -19 -58 0 -107 5 -128 14 -24 10 -40 11
-60 4 -18 -7 -30 -7 -39 0 -9 8 -14 5 -20 -12z"/>
<path d="M890 1750 c0 -7 3 -10 7 -7 3 4 3 10 0 14 -4 3 -7 0 -7 -7z"/>
<path d="M920 1671 c0 -6 4 -13 10 -16 6 -3 7 1 4 9 -7 18 -14 21 -14 7z"/>
<path d="M1334 1651 c30 -33 82 -54 114 -47 15 4 44 11 65 15 75 17 58 27 -36
23 -75 -3 -100 -1 -128 13 l-34 18 19 -22z"/>
<path d="M977 1575 c2 -74 23 -136 57 -164 8 -7 13 -18 11 -24 -4 -12 111
-113 136 -120 8 -2 11 -2 7 0 -5 3 -8 9 -8 13 0 5 19 0 43 -10 25 -11 53 -17
67 -13 13 3 21 2 18 -3 -4 -5 55 -9 140 -9 127 0 157 3 222 24 62 19 82 32
117 69 29 33 39 50 32 58 -7 8 -4 17 7 28 23 23 11 50 -16 36 -26 -14 -26 1 0
18 12 7 18 18 14 24 -4 6 -3 8 4 4 5 -3 12 0 15 6 3 10 7 10 20 -1 22 -17 22
-7 1 14 -15 14 -20 12 -59 -31 -36 -39 -46 -44 -62 -35 -10 6 -12 11 -5 11 6
0 12 5 12 11 0 8 -5 7 -16 -2 -14 -12 -14 -14 2 -26 17 -12 17 -13 0 -13 -10
0 -14 -4 -10 -12 4 -7 3 -8 -5 -4 -6 4 -9 11 -6 16 10 16 -13 20 -26 4 -18
-22 -63 -43 -88 -41 -11 1 -21 4 -21 7 0 3 -46 6 -102 6 -57 1 -123 3 -148 4
-45 3 -82 23 -88 50 -2 7 -13 22 -24 32 -12 10 -18 21 -15 24 13 13 -23 64
-46 65 -29 1 -55 6 -75 15 -18 7 -28 10 -52 13 -13 1 -13 3 0 12 12 9 12 10
-3 5 -10 -3 -26 -2 -35 3 -15 8 -17 2 -15 -64z m780 -152 c-4 -3 -10 -3 -14 0
-3 4 0 7 7 7 7 0 10 -3 7 -7z m-420 -10 c-4 -3 -10 -3 -14 0 -3 4 0 7 7 7 7 0
10 -3 7 -7z"/>
<path d="M2020 1625 c-12 -172 -17 -202 -50 -294 -25 -71 -46 -111 -125 -240
-27 -44 -82 -112 -138 -172 -69 -72 -87 -99 -87 -128 0 -10 -8 -22 -17 -26
-15 -6 -13 -9 12 -16 22 -6 34 -4 47 8 10 9 18 14 18 11 0 -5 -42 -62 -70 -95
-5 -7 -10 -15 -10 -17 0 -3 -31 -37 -70 -75 -38 -39 -70 -75 -70 -81 0 -6 5
-8 12 -4 8 5 9 2 5 -10 -4 -10 -7 -20 -7 -22 0 -2 -7 -4 -15 -4 -8 0 -15 -4
-15 -10 0 -5 5 -10 10 -10 6 0 10 -4 10 -10 0 -5 -7 -10 -15 -10 -8 0 -15 -4
-15 -10 0 -6 10 -6 27 1 20 8 30 6 41 -5 14 -14 18 -12 39 16 13 18 23 41 23
52 -1 30 -26 60 -42 50 -13 -7 -4 5 67 87 22 25 52 59 68 77 29 34 53 43 43
15 -6 -15 -4 -15 14 2 11 10 20 14 20 10 0 -11 -63 -109 -72 -113 -5 -2 -8
-13 -8 -23 0 -15 12 -7 50 34 28 30 60 67 72 83 13 16 26 31 30 32 5 2 8 11 8
21 0 32 51 68 108 76 l52 7 15 -36 c9 -20 19 -36 23 -36 16 0 54 33 62 54 6
14 9 -13 11 -84 1 -79 3 -94 8 -60 13 86 51 116 85 66 13 -20 22 -24 53 -21
20 2 42 11 49 19 6 9 31 19 55 22 l44 6 -5 166 -5 167 -47 9 c-27 5 -51 6 -55
2 -10 -9 -9 -150 0 -264 6 -83 3 -112 -15 -112 -5 0 -53 44 -107 98 -82 82
-109 102 -173 130 l-77 34 -25 -29 c-14 -15 -45 -57 -68 -93 -24 -36 -50 -65
-58 -65 -23 -1 -41 -15 -34 -28 5 -8 3 -8 -6 0 -12 11 -10 18 11 40 53 58 109
149 144 233 17 41 48 101 68 132 20 31 48 92 63 135 14 43 30 83 34 88 12 14
18 167 10 213 -7 36 -8 36 -10 7z m307 -742 c-4 -3 -10 -3 -14 0 -3 4 0 7 7 7
7 0 10 -3 7 -7z"/>
<path d="M2133 1508 c-31 -53 -34 -68 -27 -130 l7 -59 46 3 c26 2 51 9 57 18
10 12 14 12 30 0 18 -14 18 -14 5 3 -8 10 -20 16 -28 13 -7 -3 -13 0 -13 7 0
7 -3 23 -7 36 -6 22 -4 22 18 12 21 -11 22 -11 7 2 -10 8 -14 18 -11 23 4 5 1
3 -7 -3 -20 -18 -27 -16 -35 10 -10 31 -11 51 -3 57 3 3 0 13 -7 23 -12 16
-14 15 -32 -15z"/>
<path d="M946 1467 c3 -31 11 -78 19 -105 8 -26 12 -54 10 -62 -7 -23 115
-224 177 -294 29 -32 91 -98 137 -147 47 -49 80 -89 75 -89 -12 -1 38 -39 51
-40 5 0 4 5 -2 11 -6 6 -9 17 -7 23 3 7 -47 66 -109 131 -128 133 -122 125
-176 215 -92 154 -129 236 -170 380 -9 30 -10 28 -5 -23z"/>
<path d="M1767 1496 c-4 -10 0 -12 14 -9 22 6 26 23 5 23 -8 0 -16 -6 -19 -14z"/>
<path d="M1843 1493 c-7 -3 -13 -8 -13 -13 0 -11 28 -21 34 -12 7 12 -8 29
-21 25z"/>
<path d="M830 1460 c-9 -6 -10 -10 -3 -10 6 0 15 5 18 10 8 12 4 12 -15 0z"/>
<path d="M1025 1400 c3 -5 8 -10 11 -10 3 0 2 5 -1 10 -3 6 -8 10 -11 10 -3 0
-2 -4 1 -10z"/>
<path d="M2233 1373 c4 -3 10 -3 14 0 3 4 0 7 -7 7 -7 0 -10 -3 -7 -7z"/>
<path d="M2225 1321 c-2 -5 4 -11 15 -14 11 -3 20 -2 20 3 0 12 -28 21 -35 11z"/>
<path d="M863 1190 c-13 -5 -23 -14 -23 -20 0 -6 -13 -16 -30 -21 -28 -10 -29
-13 -29 -70 1 -38 6 -65 16 -74 8 -8 10 -15 4 -15 -6 0 -11 -7 -11 -15 0 -8 7
-15 15 -15 8 0 15 -4 15 -10 0 -5 -4 -10 -10 -10 -5 0 -10 -7 -10 -15 0 -8 7
-15 15 -15 17 0 20 -16 5 -25 -16 -10 -11 -21 9 -21 11 0 17 4 15 8 -3 4 0 8
5 8 21 0 11 -27 -14 -38 -14 -6 -25 -17 -25 -23 0 -7 8 -6 23 3 13 10 35 13
56 10 33 -5 34 -4 27 24 -5 25 -5 27 5 9 7 -11 13 -22 15 -24 6 -7 64 21 64
31 0 6 -25 60 -56 121 -51 103 -55 114 -49 159 7 50 5 53 -32 38z"/>
<path d="M2271 1174 c0 -11 3 -14 6 -6 3 7 2 16 -1 19 -3 4 -6 -2 -5 -13z"/>
<path d="M554 1156 c-3 -9 -7 -27 -8 -41 0 -14 -6 -25 -13 -25 -6 0 -19 -7
-28 -16 -9 -9 -37 -21 -63 -25 -58 -11 -102 -28 -102 -41 0 -13 -26 -38 -40
-38 -7 0 -2 10 11 21 l24 21 -25 -15 c-31 -18 -38 -53 -40 -197 -1 -58 -8
-132 -16 -165 -7 -33 -13 -73 -13 -90 0 -20 5 -10 14 30 7 33 21 75 30 93 16
31 19 32 75 32 48 0 61 4 69 19 12 22 59 33 84 19 10 -5 21 -8 23 -6 2 3 8 59
14 126 5 67 16 136 23 154 12 29 11 34 -4 48 -15 13 -17 22 -9 60 8 46 5 66
-6 36z m-251 -226 c3 -10 -1 -24 -8 -30 -10 -9 -13 -7 -10 7 2 10 4 24 4 31 1
18 8 15 14 -8z"/>
<path d="M753 1073 c4 -3 10 -3 14 0 3 4 0 7 -7 7 -7 0 -10 -3 -7 -7z"/>
<path d="M2460 1020 c0 -7 3 -10 7 -7 3 4 3 10 0 14 -4 3 -7 0 -7 -7z"/>
<path d="M1104 868 c-26 -40 -62 -90 -80 -110 -21 -23 -31 -44 -28 -53 6 -14
8 -14 25 1 11 9 19 23 19 30 0 7 9 18 20 24 11 6 20 9 20 6 0 -3 14 0 30 6 36
12 64 -6 74 -47 3 -13 15 -27 26 -30 11 -3 20 -10 20 -15 0 -21 137 -135 183
-153 9 -3 17 -14 17 -22 0 -9 -4 -14 -8 -11 -12 7 -38 -43 -45 -86 -4 -27 -2
-38 9 -42 16 -6 26 14 39 74 4 19 13 47 21 61 12 24 11 27 -28 57 -23 18 -45
32 -50 32 -4 0 -8 5 -8 11 0 6 5 7 13 2 6 -4 19 -8 27 -10 8 -1 25 -14 38 -29
23 -26 24 -27 42 -8 19 19 17 21 -69 99 -93 83 -128 124 -96 111 9 -3 21 -3
27 0 5 3 -12 16 -39 29 -46 22 -116 88 -105 100 5 5 -32 45 -42 45 -3 0 -26
-33 -52 -72z"/>
<path d="M1505 600 c3 -5 8 -10 11 -10 2 0 4 5 4 10 0 6 -5 10 -11 10 -5 0 -7
-4 -4 -10z"/>
<path d="M373 353 c4 -3 10 -3 14 0 3 4 0 7 -7 7 -7 0 -10 -3 -7 -7z"/>
<path d="M1385 340 c3 -5 8 -10 11 -10 2 0 4 5 4 10 0 6 -5 10 -11 10 -5 0 -7
-4 -4 -10z"/>
<path d="M1382 300 c0 -14 2 -19 5 -12 2 6 2 18 0 25 -3 6 -5 1 -5 -13z"/>
<path d="M1370 140 c0 -7 3 -10 7 -7 3 4 3 10 0 14 -4 3 -7 0 -7 -7z"/>
</g>
</svg>
